<svg width="98" height="54" viewBox="0 0 98 54" fill="none" xmlns="http://www.w3.org/2000/svg">
<path d="M25.2279 0.813477C26.9726 0.813477 27.8449 1.2832 27.8449 2.22265C27.8449 3.59827 26.5196 5.67848 23.869 8.46328C21.252 11.2481 18.6182 13.6806 15.9676 15.7608L12.042 18.9314C11.8407 19.1663 11.7401 19.3508 11.7401 19.485C11.7401 19.6192 11.8239 19.6864 11.9917 19.6864C14.6423 17.9752 17.0245 17.0861 19.1382 17.019C19.5408 17.019 19.9099 17.1364 20.2454 17.3713C21.3862 18.3107 21.9566 19.4012 21.9566 20.6426C21.9566 21.884 20.6816 23.981 18.1317 26.9335C19.2053 26.6651 20.6648 25.9773 22.5102 24.8701C24.3891 23.7293 25.9828 22.6557 27.2913 21.6491L29.2541 20.1393C29.5561 20.3742 29.707 20.6594 29.707 20.9949C29.707 21.3304 29.5561 21.6324 29.2541 21.9008C23.718 27.0342 19.5241 29.6009 16.6722 29.6009C16.4709 29.6009 16.1689 29.5674 15.7663 29.5002L15.8669 29.3493C13.8874 31.2953 11.9078 32.9225 9.92826 34.231C7.9487 35.506 6.32144 36.1435 5.04647 36.1435C1.89261 36.1435 0.315674 35.0698 0.315674 32.9225C0.315674 31.8489 0.667968 30.5907 1.37256 29.148C2.04359 27.6717 2.86561 26.2793 3.83861 24.9708C4.81161 23.6287 5.78461 22.3705 6.75762 21.1962C7.76417 20.0219 8.60296 19.0824 9.274 18.3778C9.97859 17.6732 10.3309 17.3377 10.3309 17.3713C12.7131 14.62 14.7765 12.0869 16.5212 9.7718C18.2994 7.42318 19.4737 5.76236 20.0441 4.78936C20.6145 3.78281 21.1849 2.92724 21.7553 2.22265C22.3256 1.51806 22.7954 1.11544 23.1644 1.01479C23.5671 0.88058 24.2549 0.813477 25.2279 0.813477ZM4.99615 33.3251C6.37177 33.3251 8.15001 32.3521 10.3309 30.4061C12.5453 28.4601 14.4242 26.4303 15.9676 24.3165C17.5445 22.2027 18.333 20.8271 18.333 20.1896C18.333 20.089 18.2827 20.0386 18.182 20.0386C16.4373 20.0386 14.4577 20.9781 12.2433 22.857C10.0289 24.7359 8.20034 26.6987 6.75762 28.7453C5.34844 30.792 4.64385 32.2012 4.64385 32.9729C4.64385 33.2077 4.76128 33.3251 4.99615 33.3251Z" fill="black"/>
<path d="M37.4846 10.1744C37.8201 10.1744 38.0382 10.2415 38.1389 10.3757C38.6086 10.9461 38.8435 11.4158 38.8435 11.7849C38.8435 12.1204 38.7428 12.4224 38.5415 12.6908C38.3402 12.9257 38.0886 13.2109 37.7866 13.5464C37.5182 13.8483 36.9478 14.2845 36.0754 14.8549C35.2367 15.3917 34.4146 15.6601 33.6094 15.6601C33.0055 15.5595 32.7035 15.1904 32.7035 14.5529C32.7035 13.5464 33.3074 12.5734 34.5153 11.6339C35.7232 10.6609 36.7129 10.1744 37.4846 10.1744ZM25.406 30.0035C25.1376 30.4733 25.0034 30.8926 25.0034 31.2617C25.0034 31.6308 25.2047 31.8153 25.6073 31.8153C25.8422 31.8153 26.2448 31.7147 26.8152 31.5134C33.0893 28.2253 39.2293 24.35 45.2351 19.8877C45.537 20.1225 45.688 20.4077 45.688 20.7432C45.688 21.0788 45.5203 21.3975 45.1848 21.6995C44.8492 22.0014 44.3627 22.4376 43.7253 23.008C43.1213 23.5784 41.947 24.6017 40.2023 26.078C38.4576 27.5542 36.8304 28.8963 35.3205 30.1042C31.3614 33.2916 28.4424 35.1705 26.5635 35.7409C25.9596 35.9086 25.3053 35.9925 24.6007 35.9925C22.0173 35.9925 20.7255 34.6169 20.7255 31.8656C20.7255 30.792 21.3127 29.2654 22.487 27.2858C23.6613 25.2727 24.8692 23.5113 26.1106 22.0014C27.352 20.458 28.174 19.6025 28.5766 19.4347C29.1806 19.0656 29.8348 18.8811 30.5394 18.8811C31.244 18.8811 31.915 19.0153 32.5525 19.2837C32.7538 19.3844 32.8545 19.5186 32.8545 19.6864C32.8545 19.8541 32.6867 20.1057 32.3512 20.4413C32.0492 20.7768 31.5627 21.2968 30.8917 22.0014C30.2542 22.706 29.2812 23.9307 27.9727 25.6753C26.6977 27.3865 25.8422 28.8292 25.406 30.0035Z" fill="black"/>
<path d="M53.781 20.3909C54.2842 20.76 54.5359 21.1123 54.5359 21.4478C54.5359 21.7498 54.3849 22.035 54.0829 22.3034C53.8145 22.5718 52.2544 24.6352 49.4025 28.4937C46.5505 32.3186 44.6213 34.9524 43.6148 36.3951C42.6418 37.8379 41.954 38.878 41.5513 39.5155C41.1487 40.1865 40.3099 41.3608 39.035 43.0384C37.7935 44.716 36.5353 46.2258 35.2604 47.5679C33.9854 48.9435 32.4588 50.252 30.6806 51.4934C28.8688 52.7684 27.1408 53.5736 25.4968 53.9092C24.7922 53.9092 24.0876 53.7582 23.383 53.4562C22.041 52.8858 21.3699 51.829 21.3699 50.2856C21.3699 48.3396 23.1985 46.0413 26.8557 43.3907C30.4792 40.7736 33.1802 39.4651 34.9584 39.4651C35.2268 39.4651 35.361 39.5155 35.361 39.6161C35.361 39.7168 35.1933 39.8845 34.8578 40.1194C31.9723 42.0989 29.3553 44.2295 27.0066 46.511C24.6245 48.8261 23.4334 50.4701 23.4334 51.4431C23.4334 51.5773 23.534 51.6444 23.7353 51.6444C23.9366 51.6444 24.3728 51.4263 25.0439 50.9902C26.6543 49.8494 28.9359 47.7692 31.8884 44.7495C35.1429 41.1259 37.1393 38.8109 37.8774 37.8043C39.1859 36.0261 40.7461 34.1807 42.5579 32.2683L43.5644 31.2114C43.598 31.1443 43.6483 31.0772 43.7154 31.0101C43.7825 30.943 43.8664 30.8255 43.9671 30.6578C44.2355 30.2216 44.3529 30.0035 44.3194 30.0035C44.2187 30.0035 44.0006 30.1713 43.6651 30.5068C43.3296 30.8423 42.8431 31.312 42.2056 31.916C41.6017 32.4864 40.5616 33.2748 39.0853 34.2814C37.609 35.2544 36.4179 35.7409 35.512 35.7409C34.6061 35.7409 33.9015 35.4389 33.3983 34.835C32.895 34.231 32.6433 33.5936 32.6433 32.9225C32.6433 32.2179 33.0795 31.1778 33.9519 29.8022C34.8242 28.4266 35.965 26.9335 37.3741 25.3231C38.7833 23.7126 40.5951 22.2195 42.8095 20.8439C45.0575 19.4683 47.3558 18.6462 49.7044 18.3778C51.08 18.6798 51.9692 19.1663 52.3718 19.8373C52.4389 19.8038 52.5731 19.787 52.7744 19.787C52.9757 19.787 53.3112 19.9883 53.781 20.3909ZM38.1794 31.0101C39.0517 30.943 40.5616 30.1377 42.7089 28.5943C44.8897 27.051 46.8525 25.5076 48.5972 23.9642C50.3755 22.4208 51.2646 21.5317 51.2646 21.2968C51.2646 21.2297 51.1975 21.1962 51.0633 21.1962C49.3186 21.5653 47.3726 22.4879 45.2253 23.9642C43.0779 25.4405 41.3332 26.8664 39.9912 28.2421C38.6491 29.6177 37.9781 30.49 37.9781 30.8591C37.9781 30.9597 38.0452 31.0101 38.1794 31.0101Z" fill="black"/>
<path d="M64.3152 30.6075C69.3144 27.9233 74.8169 24.35 80.8226 19.8877C81.1246 20.1225 81.2756 20.4077 81.2756 20.7432C81.2756 21.0788 81.1078 21.3975 80.7723 21.6995C80.4368 22.0014 79.9503 22.4376 79.3128 23.008C78.7089 23.5784 77.5346 24.6017 75.7899 26.078C74.0452 27.5542 72.4179 28.8963 70.9081 30.1042C66.949 33.2916 64.03 35.1705 62.1511 35.7409C61.5471 35.9086 60.8929 35.9925 60.1883 35.9925C59.0475 35.9925 58.4772 35.1034 58.4772 33.3251C58.4772 32.9561 58.6281 32.4025 58.9301 31.6643C59.2656 30.9262 59.4502 30.5068 59.4837 30.4061C59.5508 30.2719 59.6011 30.1713 59.6347 30.1042C59.6682 30.0371 59.7018 29.9867 59.7354 29.9532C59.7689 29.8861 59.7857 29.819 59.7857 29.7519C59.7857 29.6848 59.685 29.6512 59.4837 29.6512C59.316 29.6512 58.7623 30.1042 57.8229 31.0101C56.8834 31.8824 56.095 32.587 55.4575 33.1238C54.8536 33.6607 54.149 34.1639 53.3437 34.6337C52.572 35.1034 51.9346 35.3383 51.4313 35.3383C50.0892 35.3383 49.4182 34.7175 49.4182 33.4761C49.4182 32.738 49.6698 31.8321 50.1731 30.7584C51.3474 28.2756 53.1089 25.7928 55.4575 23.3099C57.8061 20.8271 59.4837 19.5689 60.4903 19.5354C60.8593 19.5354 61.1949 19.6696 61.4968 19.938C61.7988 20.2064 61.9498 20.5084 61.9498 20.8439C61.9498 21.1794 61.6142 21.6827 60.9432 22.3537C60.2722 23.0248 59.4166 23.8971 58.3765 24.9708C57.37 26.0109 56.6486 26.8832 56.2124 27.5878C55.8098 28.2924 55.6085 28.7621 55.6085 28.997C55.6085 29.2318 55.7427 29.3493 56.0111 29.3493C56.2795 29.3493 56.766 29.1312 57.4706 28.695C59.3831 27.3865 61.5639 25.776 64.0132 23.8635C66.496 21.9511 68.0897 20.5587 68.7943 19.6864C68.9621 19.0824 69.4654 18.7805 70.3042 18.7805C71.9146 18.7805 72.7199 19.0656 72.7199 19.636C72.7199 19.8709 71.9314 20.7432 70.3545 22.2531C65.6237 26.7826 63.2583 29.5841 63.2583 30.6578C63.2583 30.8255 63.3254 30.9094 63.4596 30.9094C63.6274 30.9094 63.9125 30.8088 64.3152 30.6075Z" fill="black"/>
<path d="M89.041 10.1744C89.3765 10.1744 89.5946 10.2415 89.6953 10.3757C90.165 10.9461 90.3998 11.4158 90.3998 11.7849C90.3998 12.1204 90.2992 12.4224 90.0979 12.6908C89.8966 12.9257 89.6449 13.2109 89.343 13.5464C89.0745 13.8483 88.5042 14.2845 87.6318 14.8549C86.793 15.3917 85.971 15.6601 85.1658 15.6601C84.5618 15.5595 84.2599 15.1904 84.2599 14.5529C84.2599 13.5464 84.8638 12.5734 86.0717 11.6339C87.2795 10.6609 88.2693 10.1744 89.041 10.1744ZM76.9623 30.0035C76.6939 30.4733 76.5597 30.8926 76.5597 31.2617C76.5597 31.6308 76.761 31.8153 77.1637 31.8153C77.3985 31.8153 77.8011 31.7147 78.3715 31.5134C84.6457 28.2253 90.7857 24.35 96.7915 19.8877C97.0934 20.1225 97.2444 20.4077 97.2444 20.7432C97.2444 21.0788 97.0766 21.3975 96.7411 21.6995C96.4056 22.0014 95.9191 22.4376 95.2816 23.008C94.6777 23.5784 93.5034 24.6017 91.7587 26.078C90.014 27.5542 88.3867 28.8963 86.8769 30.1042C82.9178 33.2916 79.9988 35.1705 78.1199 35.7409C77.516 35.9086 76.8617 35.9925 76.1571 35.9925C73.5736 35.9925 72.2819 34.6169 72.2819 31.8656C72.2819 30.792 72.869 29.2654 74.0434 27.2858C75.2177 25.2727 76.4255 23.5113 77.6669 22.0014C78.9084 20.458 79.7304 19.6025 80.133 19.4347C80.7369 19.0656 81.3912 18.8811 82.0958 18.8811C82.8004 18.8811 83.4714 19.0153 84.1089 19.2837C84.3102 19.3844 84.4108 19.5186 84.4108 19.6864C84.4108 19.8541 84.2431 20.1057 83.9076 20.4413C83.6056 20.7768 83.1191 21.2968 82.4481 22.0014C81.8106 22.706 80.8376 23.9307 79.5291 25.6753C78.2541 27.3865 77.3985 28.8292 76.9623 30.0035Z" fill="black"/>
</svg>
