<svg width="228" height="42" viewBox="0 0 228 42" fill="none" xmlns="http://www.w3.org/2000/svg">
<path d="M8.4957 4.30609C11.2316 4.30609 13.3563 4.90275 14.8697 6.09606C16.4123 7.26027 17.1836 8.97747 17.1836 11.2477C17.1836 12.9358 16.7034 14.2601 15.7429 15.2205C14.8115 16.1519 13.6328 16.8068 12.2066 17.1851C13.0215 17.3307 13.7783 17.5926 14.4768 17.971C15.1753 18.3202 15.7865 18.7859 16.3104 19.368C16.8343 19.9501 17.2418 20.6486 17.5328 21.4636C17.853 22.2494 18.0131 23.1371 18.0131 24.1267C18.0131 25.2618 17.7657 26.3096 17.2709 27.2701C16.7761 28.2014 16.0921 29.0018 15.219 29.6712C14.3458 30.3407 13.3126 30.8646 12.1193 31.2429C10.926 31.6213 9.61625 31.8105 8.19009 31.8105H0.244385V4.30609H8.4957ZM4.2609 15.7881H7.53523C8.26286 15.7881 8.96138 15.7299 9.6308 15.6135C10.3002 15.497 10.8823 15.2787 11.3771 14.9586C11.901 14.6384 12.3085 14.2164 12.5995 13.6925C12.9197 13.1395 13.0798 12.4264 13.0798 11.5533C13.0798 10.1562 12.5995 9.13755 11.6391 8.49724C10.7077 7.85692 9.45617 7.53677 7.88449 7.53677H4.2609V15.7881ZM4.2609 28.5798H7.75352C8.56846 28.5798 9.33975 28.507 10.0674 28.3615C10.795 28.1869 11.4353 27.9104 11.9883 27.532C12.5413 27.1536 12.9779 26.6589 13.298 26.0477C13.6473 25.4073 13.8219 24.636 13.8219 23.7338C13.8219 22.8315 13.6182 22.0893 13.2107 21.5072C12.8324 20.896 12.323 20.4012 11.6827 20.0229C11.0424 19.6445 10.3148 19.3826 9.49983 19.237C8.68488 19.0624 7.86994 18.9751 7.05499 18.9751H4.2609V28.5798Z" fill="#F52D2D"/>
<path d="M41.986 21.3326C41.986 23.0498 41.724 24.5924 41.2001 25.9603C40.6762 27.2992 39.9486 28.4343 39.0172 29.3656C38.115 30.297 37.0526 31.0101 35.8302 31.5049C34.6078 31.9705 33.2835 32.2034 31.8574 32.2034C30.4312 32.2034 29.1069 31.9851 27.8845 31.5485C26.6912 31.0828 25.6434 30.4134 24.7411 29.5403C23.868 28.638 23.1695 27.5466 22.6456 26.2659C22.1508 24.9562 21.9034 23.4573 21.9034 21.7692C21.9034 20.052 22.1653 18.524 22.6892 17.1851C23.2131 15.8463 23.9262 14.7257 24.8285 13.8235C25.7598 12.8921 26.8367 12.1936 28.0591 11.7279C29.2815 11.2331 30.6058 10.9857 32.032 10.9857C33.4581 10.9857 34.7679 11.204 35.9612 11.6406C37.1836 12.0772 38.2314 12.732 39.1045 13.6052C40.0068 14.4783 40.7053 15.5698 41.2001 16.8795C41.724 18.1602 41.986 19.6445 41.986 21.3326ZM37.9694 21.5509C37.9694 20.183 37.7948 19.0188 37.4455 18.0583C37.0963 17.0978 36.6306 16.312 36.0485 15.7008C35.4955 15.0896 34.8552 14.653 34.1276 14.391C33.3999 14.1 32.6578 13.9545 31.901 13.9545C31.1443 13.9545 30.4021 14.0709 29.6745 14.3037C28.9468 14.5366 28.3065 14.944 27.7535 15.5261C27.2005 16.1082 26.7494 16.8941 26.4001 17.8837C26.08 18.8441 25.9199 20.0665 25.9199 21.5509C25.9199 22.9188 26.0945 24.0976 26.4438 25.0872C26.7931 26.0476 27.2442 26.8335 27.7972 27.4447C28.3793 28.0559 29.0342 28.507 29.7618 28.7981C30.4894 29.0891 31.2316 29.2347 31.9883 29.2347C32.7451 29.2347 33.4872 29.1182 34.2149 28.8854C34.9425 28.6235 35.5828 28.2014 36.1358 27.6193C36.6888 27.0081 37.1254 26.2223 37.4455 25.2618C37.7948 24.2722 37.9694 23.0353 37.9694 21.5509Z" fill="#F52D2D"/>
<path d="M65.4776 21.3326C65.4776 23.0498 65.2156 24.5924 64.6917 25.9603C64.1678 27.2992 63.4402 28.4343 62.5088 29.3656C61.6066 30.297 60.5442 31.0101 59.3218 31.5049C58.0994 31.9705 56.7751 32.2034 55.349 32.2034C53.9228 32.2034 52.5985 31.9851 51.3761 31.5485C50.1828 31.0828 49.135 30.4134 48.2328 29.5403C47.3596 28.638 46.6611 27.5466 46.1372 26.2659C45.6424 24.9562 45.395 23.4573 45.395 21.7692C45.395 20.052 45.657 18.524 46.1808 17.1851C46.7047 15.8463 47.4178 14.7257 48.3201 13.8235C49.2514 12.8921 50.3283 12.1936 51.5507 11.7279C52.7732 11.2331 54.0974 10.9857 55.5236 10.9857C56.9498 10.9857 58.2595 11.204 59.4528 11.6406C60.6752 12.0772 61.723 12.732 62.5962 13.6052C63.4984 14.4783 64.1969 15.5698 64.6917 16.8795C65.2156 18.1602 65.4776 19.6445 65.4776 21.3326ZM61.4611 21.5509C61.4611 20.183 61.2864 19.0188 60.9372 18.0583C60.5879 17.0978 60.1222 16.312 59.5401 15.7008C58.9871 15.0896 58.3468 14.653 57.6192 14.391C56.8915 14.1 56.1494 13.9545 55.3926 13.9545C54.6359 13.9545 53.8937 14.0709 53.1661 14.3037C52.4385 14.5366 51.7981 14.944 51.2451 15.5261C50.6921 16.1082 50.241 16.8941 49.8918 17.8837C49.5716 18.8441 49.4115 20.0665 49.4115 21.5509C49.4115 22.9188 49.5861 24.0976 49.9354 25.0872C50.2847 26.0476 50.7358 26.8335 51.2888 27.4447C51.8709 28.0559 52.5258 28.507 53.2534 28.7981C53.981 29.0891 54.7232 29.2347 55.4799 29.2347C56.2367 29.2347 56.9789 29.1182 57.7065 28.8854C58.4341 28.6235 59.0744 28.2014 59.6274 27.6193C60.1804 27.0081 60.617 26.2223 60.9372 25.2618C61.2864 24.2722 61.4611 23.0353 61.4611 21.5509Z" fill="#F52D2D"/>
<path d="M73.9946 24.3013V31.8105H70.1964V0.813477H73.9946V20.1102L82.2459 11.2913H87.0046L78.5786 19.9356L87.3975 31.8105H82.8571L76.0465 22.2494L73.9946 24.3013Z" fill="#F52D2D"/>
<path d="M91.1432 31.8105V11.2913H94.9851V31.8105H91.1432ZM93.0641 6.00875C92.3947 6.00875 91.8126 5.79046 91.3178 5.35388C90.8521 4.8882 90.6193 4.32065 90.6193 3.65123C90.6193 2.98181 90.8521 2.41426 91.3178 1.94858C91.8126 1.4829 92.3947 1.25005 93.0641 1.25005C93.7045 1.25005 94.272 1.4829 94.7668 1.94858C95.2616 2.41426 95.509 2.98181 95.509 3.65123C95.509 4.32065 95.2616 4.8882 94.7668 5.35388C94.272 5.79046 93.7045 6.00875 93.0641 6.00875Z" fill="#F52D2D"/>
<path d="M105.118 31.8105H101.276V11.2913H104.288L104.856 14.1291C105.875 13.1104 106.937 12.3391 108.043 11.8152C109.178 11.2622 110.473 10.9857 111.928 10.9857C114.024 10.9857 115.668 11.5824 116.862 12.7757C118.055 13.9399 118.652 15.5698 118.652 17.6654V31.8105H114.81V18.2329C114.81 16.9814 114.475 15.9918 113.806 15.2642C113.165 14.5075 112.176 14.1291 110.837 14.1291C108.8 14.1291 106.893 15.0459 105.118 16.8795V31.8105Z" fill="#F52D2D"/>
<path d="M124.078 18.1019C124.078 16.9668 124.282 15.9627 124.689 15.0896C125.097 14.1873 125.664 13.4306 126.392 12.8194C127.149 12.2081 128.036 11.757 129.055 11.466C130.074 11.1458 131.18 10.9857 132.373 10.9857C132.81 10.9857 133.232 11.0148 133.639 11.073C134.047 11.1313 134.454 11.204 134.862 11.2913H143.724V14.1291H142.371L138.878 13.6489C139.431 14.231 139.853 14.9004 140.144 15.6571C140.464 16.4138 140.624 17.2142 140.624 18.0583C140.624 19.1934 140.421 20.2121 140.013 21.1143C139.606 21.9875 139.038 22.7297 138.311 23.3409C137.583 23.9521 136.71 24.4178 135.691 24.7379C134.672 25.029 133.566 25.1745 132.373 25.1745C131.471 25.1745 130.685 25.1163 130.016 24.9999C129.346 25.2327 128.881 25.5383 128.619 25.9167C128.357 26.2659 128.226 26.6443 128.226 27.0518C128.226 27.7212 128.444 28.1723 128.881 28.4052C129.346 28.638 129.957 28.7544 130.714 28.7544H136.128C138.398 28.7544 140.13 29.2783 141.323 30.3261C142.545 31.3448 143.157 32.7418 143.157 34.5173C143.157 35.6524 142.909 36.671 142.414 37.5733C141.92 38.4756 141.207 39.2468 140.275 39.8872C139.373 40.5275 138.267 41.0077 136.957 41.3279C135.647 41.6771 134.178 41.8518 132.548 41.8518C129.579 41.8518 127.207 41.3133 125.432 40.2364C123.685 39.1886 122.812 37.6315 122.812 35.565C122.812 34.4881 123.147 33.5859 123.816 32.8583C124.515 32.1306 125.417 31.5776 126.523 31.1993C125.941 30.7918 125.504 30.3698 125.213 29.9332C124.922 29.4675 124.777 28.8563 124.777 28.0996C124.777 27.1973 125.039 26.426 125.563 25.7857C126.116 25.1454 126.858 24.636 127.789 24.2577C126.625 23.7338 125.708 22.9771 125.039 21.9875C124.398 20.9688 124.078 19.6736 124.078 18.1019ZM128.75 31.8105C127.265 32.4799 126.523 33.5277 126.523 34.9538C126.523 37.5151 128.589 38.7957 132.722 38.7957C133.945 38.7957 134.978 38.6793 135.822 38.4464C136.666 38.2136 137.35 37.908 137.874 37.5296C138.398 37.1513 138.776 36.7292 139.009 36.2636C139.271 35.7979 139.402 35.3176 139.402 34.8229C139.402 33.6004 138.98 32.7855 138.136 32.378C137.321 31.9997 136.288 31.8105 135.036 31.8105H128.75ZM136.739 18.1893C136.739 16.6467 136.331 15.5116 135.517 14.784C134.731 14.0563 133.683 13.6925 132.373 13.6925C131.063 13.6925 130.001 14.0563 129.186 14.784C128.4 15.5116 128.007 16.5885 128.007 18.0146C128.007 19.5281 128.4 20.6486 129.186 21.3763C130.001 22.0748 131.063 22.4241 132.373 22.4241C133.683 22.4241 134.731 22.0748 135.517 21.3763C136.331 20.6777 136.739 19.6154 136.739 18.1893Z" fill="#F52D2D"/>
<path d="M146.539 29.453C146.539 28.6962 146.801 28.0559 147.325 27.532C147.849 27.0081 148.475 26.7462 149.203 26.7462C149.93 26.7462 150.541 27.0081 151.036 27.532C151.56 28.0559 151.822 28.6962 151.822 29.453C151.822 30.297 151.56 30.9664 151.036 31.4612C150.541 31.956 149.93 32.2034 149.203 32.2034C148.475 32.2034 147.849 31.956 147.325 31.4612C146.801 30.9664 146.539 30.297 146.539 29.453Z" fill="#F52D2D"/>
<path d="M166.095 29.2347C167.027 29.2347 167.842 29.1328 168.54 28.9291C169.239 28.7253 169.923 28.4634 170.592 28.1432L171.422 31.0246C169.85 31.8105 167.973 32.2034 165.79 32.2034C164.305 32.2034 162.908 31.9851 161.599 31.5485C160.318 31.1119 159.183 30.4571 158.193 29.5839C157.233 28.6817 156.476 27.5757 155.923 26.2659C155.37 24.9271 155.094 23.37 155.094 21.5946C155.094 19.9647 155.356 18.4949 155.879 17.1851C156.403 15.8754 157.131 14.7694 158.062 13.8671C158.994 12.9358 160.114 12.2227 161.424 11.7279C162.734 11.2331 164.174 10.9857 165.746 10.9857C166.648 10.9857 167.521 11.0585 168.366 11.204C169.239 11.3204 170.228 11.626 171.334 12.1208L170.461 15.0459C169.122 14.2892 167.682 13.9108 166.139 13.9108C164.014 13.9108 162.297 14.5802 160.987 15.9191C159.678 17.2288 159.023 19.077 159.023 21.4636C159.023 22.9479 159.227 24.1849 159.634 25.1745C160.041 26.1641 160.58 26.9645 161.249 27.5757C161.919 28.1578 162.675 28.5798 163.52 28.8417C164.364 29.1037 165.222 29.2347 166.095 29.2347Z" fill="#F52D2D"/>
<path d="M193.168 21.3326C193.168 23.0498 192.906 24.5924 192.382 25.9603C191.858 27.2992 191.131 28.4343 190.199 29.3656C189.297 30.297 188.235 31.0101 187.012 31.5049C185.79 31.9705 184.465 32.2034 183.039 32.2034C181.613 32.2034 180.289 31.9851 179.066 31.5485C177.873 31.0828 176.825 30.4134 175.923 29.5403C175.05 28.638 174.351 27.5466 173.828 26.2659C173.333 24.9562 173.085 23.4573 173.085 21.7692C173.085 20.052 173.347 18.524 173.871 17.1851C174.395 15.8463 175.108 14.7257 176.01 13.8235C176.942 12.8921 178.019 12.1936 179.241 11.7279C180.464 11.2331 181.788 10.9857 183.214 10.9857C184.64 10.9857 185.95 11.204 187.143 11.6406C188.366 12.0772 189.413 12.732 190.286 13.6052C191.189 14.4783 191.887 15.5698 192.382 16.8795C192.906 18.1602 193.168 19.6445 193.168 21.3326ZM189.151 21.5509C189.151 20.183 188.977 19.0188 188.628 18.0583C188.278 17.0978 187.813 16.312 187.23 15.7008C186.677 15.0896 186.037 14.653 185.309 14.391C184.582 14.1 183.84 13.9545 183.083 13.9545C182.326 13.9545 181.584 14.0709 180.856 14.3037C180.129 14.5366 179.488 14.944 178.935 15.5261C178.382 16.1082 177.931 16.8941 177.582 17.8837C177.262 18.8441 177.102 20.0665 177.102 21.5509C177.102 22.9188 177.276 24.0976 177.626 25.0872C177.975 26.0476 178.426 26.8335 178.979 27.4447C179.561 28.0559 180.216 28.507 180.944 28.7981C181.671 29.0891 182.414 29.2347 183.17 29.2347C183.927 29.2347 184.669 29.1182 185.397 28.8854C186.124 28.6235 186.765 28.2014 187.318 27.6193C187.871 27.0081 188.307 26.2223 188.628 25.2618C188.977 24.2722 189.151 23.0353 189.151 21.5509Z" fill="#F52D2D"/>
<path d="M201.685 31.8105H197.843V11.2913H200.812L201.379 14.1291C202.34 13.1686 203.373 12.4119 204.479 11.8589C205.585 11.2768 206.909 10.9857 208.452 10.9857C209.907 10.9857 211.1 11.2913 212.032 11.9025C212.963 12.4846 213.662 13.2996 214.127 14.3474C215.146 13.2705 216.267 12.441 217.489 11.8589C218.711 11.2768 220.065 10.9857 221.549 10.9857C223.645 10.9857 225.216 11.5824 226.264 12.7757C227.341 13.9399 227.88 15.5698 227.88 17.6654V31.8105H224.038V18.3639C224.038 16.9959 223.747 15.9482 223.165 15.2205C222.582 14.4929 221.622 14.1291 220.283 14.1291C218.304 14.1291 216.456 15.0168 214.739 16.7922C214.768 16.9377 214.782 17.0833 214.782 17.2288C214.782 17.3743 214.782 17.5198 214.782 17.6654V31.8105H210.94V18.3639C210.94 16.9959 210.649 15.9482 210.067 15.2205C209.485 14.4929 208.525 14.1291 207.186 14.1291C205.207 14.1291 203.373 15.0605 201.685 16.9232V31.8105Z" fill="#F52D2D"/>
</svg>
