<svg width="148" height="32" viewBox="0 0 148 32" fill="none" xmlns="http://www.w3.org/2000/svg">
<path d="M0.879578 30.3455L1.03481 28.2499C2.74231 28.6639 3.97119 28.8709 4.72146 28.8709C7.04987 28.8709 8.22701 27.4997 8.25288 24.7573V2.75382H11.1246V24.7573C11.1246 27.7066 10.4519 29.6082 9.10664 30.4619C8.64095 30.7724 8.05885 31.0052 7.36033 31.1605C6.6618 31.3157 5.93741 31.3933 5.18714 31.3933C3.37615 31.3933 1.9403 31.044 0.879578 30.3455Z" fill="#1668E2"/>
<path d="M15.0198 26.2708V23.9036C15.0198 22.3254 15.4726 21.0707 16.3781 20.1393C17.3094 19.2079 18.5771 18.7423 20.1811 18.7423C22.7424 18.7423 24.8638 18.7423 26.5455 18.7423C27.244 18.7423 27.7873 18.7423 28.1754 18.7423C28.5893 18.7423 28.7963 18.7423 28.7963 18.7423C28.7963 17.992 28.7963 17.3581 28.7963 16.8407C28.7963 16.7372 28.7963 16.6467 28.7963 16.5691C28.7963 16.4915 28.7963 16.4268 28.7963 16.375C28.7963 16.2974 28.7963 16.2457 28.7963 16.2198C28.7963 16.1681 28.7963 16.1422 28.7963 16.1422C28.7963 14.0208 27.7355 12.96 25.6141 12.96C23.2857 12.96 19.9742 13.1153 15.6795 13.4257V11.3301C18.2925 10.6057 21.6429 10.2177 25.7305 10.1659C25.7564 10.1659 25.7952 10.1659 25.8469 10.1659C27.5545 10.1659 28.9515 10.6704 30.0381 11.6794C31.1247 12.6625 31.668 14.1501 31.668 16.1422V31.1605H29.5336L28.7963 28.6768L28.2142 28.9485C27.852 29.1296 27.3604 29.3624 26.7395 29.647C26.1186 29.9057 25.4459 30.1773 24.7215 30.4619C23.9972 30.7206 23.221 30.9406 22.3931 31.1217C21.5653 31.3027 20.8279 31.3933 20.1811 31.3933C18.7065 31.3933 17.4776 30.9406 16.4945 30.0351C15.5114 29.1296 15.0198 27.8748 15.0198 26.2708ZM17.8915 26.0768C17.8915 27.7066 18.6547 28.5216 20.1811 28.5216C21.1125 28.5216 22.2897 28.3534 23.7126 28.0171C25.1614 27.6808 26.3773 27.3574 27.3604 27.0469L28.7963 26.5424V20.9931L20.1811 21.614C19.405 21.6916 18.8229 21.9632 18.4348 22.4289C18.0726 22.8946 17.8915 23.4638 17.8915 24.1364V26.0768Z" fill="#1668E2"/>
<path d="M35.9195 31.1605V0.813477H38.7912V17.8885H40.3434L48.2212 10.554H52.2183L43.0599 19.3244L52.2183 31.1605H48.6481L40.3434 20.7602H38.7912V31.1605H35.9195Z" fill="#1668E2"/>
<path d="M55.3229 31.1605V10.554H57.3409L58.1946 13.0376C58.3498 12.9342 58.6603 12.7531 59.126 12.4943C59.6175 12.2098 59.9538 12.0157 60.1349 11.9122C60.3419 11.7829 60.6524 11.6147 61.0663 11.4078C61.5061 11.2008 61.8554 11.0585 62.1141 10.9809C62.3987 10.8774 62.735 10.761 63.1231 10.6316C63.5111 10.5023 63.8992 10.4246 64.2873 10.3988C64.7012 10.347 65.1152 10.3212 65.5291 10.3212C66.8227 10.3212 67.9869 10.5928 69.0217 11.1361C70.0566 11.6794 70.7939 12.4167 71.2337 13.3481C73.6656 11.3301 76.4338 10.3212 79.5384 10.3212C81.3494 10.3212 82.8628 10.9421 84.0788 12.1839C85.2947 13.4257 85.9027 15.0168 85.9027 16.9571V31.1605H83.031V16.9571C83.031 15.8188 82.6947 14.9133 82.022 14.2407C81.3752 13.5421 80.5474 13.1929 79.5384 13.1929C77.9861 13.1929 76.6408 13.3481 75.5025 13.6586C74.39 13.969 73.1999 14.5382 71.9322 15.3661V16.8795V31.1605H69.0605V16.9571C69.0605 15.8188 68.7242 14.9133 68.0516 14.2407C67.4048 13.5421 66.5639 13.1929 65.5291 13.1929C64.5719 13.1929 63.6664 13.2964 62.8126 13.5033C61.9847 13.7103 61.338 13.9173 60.8723 14.1242C60.4066 14.3053 59.514 14.7193 58.1946 15.3661V31.1605H55.3229Z" fill="#1668E2"/>
<path d="M89.4123 26.2708V23.9036C89.4123 22.3254 89.8651 21.0707 90.7705 20.1393C91.7019 19.2079 92.9696 18.7423 94.5736 18.7423C97.1349 18.7423 99.2563 18.7423 100.938 18.7423C101.636 18.7423 102.18 18.7423 102.568 18.7423C102.982 18.7423 103.189 18.7423 103.189 18.7423C103.189 17.992 103.189 17.3581 103.189 16.8407C103.189 16.7372 103.189 16.6467 103.189 16.5691C103.189 16.4915 103.189 16.4268 103.189 16.375C103.189 16.2974 103.189 16.2457 103.189 16.2198C103.189 16.1681 103.189 16.1422 103.189 16.1422C103.189 14.0208 102.128 12.96 100.007 12.96C97.6782 12.96 94.3666 13.1153 90.072 13.4257V11.3301C92.685 10.6057 96.0353 10.2177 100.123 10.1659C100.149 10.1659 100.188 10.1659 100.239 10.1659C101.947 10.1659 103.344 10.6704 104.431 11.6794C105.517 12.6625 106.06 14.1501 106.06 16.1422V31.1605H103.926L103.189 28.6768L102.607 28.9485C102.244 29.1296 101.753 29.3624 101.132 29.647C100.511 29.9057 99.8384 30.1773 99.114 30.4619C98.3896 30.7206 97.6135 30.9406 96.7856 31.1217C95.9577 31.3027 95.2204 31.3933 94.5736 31.3933C93.099 31.3933 91.8701 30.9406 90.887 30.0351C89.9039 29.1296 89.4123 27.8748 89.4123 26.2708ZM92.284 26.0768C92.284 27.7066 93.0472 28.5216 94.5736 28.5216C95.505 28.5216 96.6821 28.3534 98.105 28.0171C99.5538 27.6808 100.77 27.3574 101.753 27.0469L103.189 26.5424V20.9931L94.5736 21.614C93.7975 21.6916 93.2154 21.9632 92.8273 22.4289C92.4651 22.8946 92.284 23.4638 92.284 24.1364V26.0768Z" fill="#1668E2"/>
<path d="M109.924 20.7602C109.924 18.4835 110.079 16.6596 110.39 15.2884C110.7 13.8914 111.256 12.8436 112.058 12.1451C112.886 11.4207 113.792 10.955 114.775 10.748C115.784 10.5152 117.168 10.3988 118.927 10.3988C120.35 10.3988 121.462 10.4635 122.264 10.5928C123.066 10.7222 123.856 11.0197 124.632 11.4854C125.408 11.9511 125.964 12.6884 126.3 13.6974C126.637 14.7063 126.805 16.0387 126.805 17.6945C126.805 20.8508 125.033 22.4289 121.488 22.4289H112.796C112.796 24.8349 113.067 26.4519 113.611 27.2798C114.154 28.0818 115.189 28.4828 116.715 28.4828C116.896 28.4828 117.168 28.4828 117.53 28.4828C117.892 28.4828 118.164 28.4828 118.345 28.4828C121.967 28.4828 124.658 28.3534 126.417 28.0947V30.2679C123.856 30.9923 120.622 31.3545 116.715 31.3545C114.102 31.3545 112.317 30.6042 111.36 29.1037C110.402 27.6032 109.924 24.822 109.924 20.7602ZM112.796 19.596H121.488C123.118 19.596 123.933 18.9622 123.933 17.6945C123.933 15.7024 123.636 14.4735 123.041 14.0078C122.471 13.5163 121.113 13.2705 118.966 13.2705C118.06 13.2705 117.388 13.2834 116.948 13.3093C116.534 13.3352 116.029 13.4128 115.434 13.5421C114.865 13.6456 114.451 13.8267 114.193 14.0854C113.96 14.3441 113.701 14.7063 113.416 15.172C113.158 15.6377 112.99 16.2327 112.912 16.9571C112.834 17.6815 112.796 18.5612 112.796 19.596Z" fill="#1668E2"/>
<path d="M130.701 31.1605V10.554H132.719L133.572 12.96C133.65 12.9342 133.935 12.7789 134.426 12.4943C134.918 12.1839 135.215 12.0028 135.319 11.9511C135.448 11.8993 135.733 11.757 136.172 11.5242C136.612 11.2655 136.923 11.1102 137.104 11.0585C137.285 11.0068 137.582 10.9033 137.996 10.748C138.41 10.5928 138.747 10.4893 139.005 10.4376C139.29 10.3858 139.626 10.3341 140.014 10.2824C140.402 10.2306 140.79 10.2047 141.179 10.2047C143.145 10.2047 144.697 10.8515 145.835 12.1451C146.974 13.4386 147.543 14.9909 147.543 16.8019V31.1605H144.671V16.8019C144.671 15.586 144.348 14.6675 143.701 14.0466C143.054 13.3998 142.213 13.0765 141.179 13.0765C140.195 13.0765 139.264 13.1799 138.384 13.3869C137.505 13.5939 136.793 13.8138 136.25 14.0466C135.733 14.2536 134.84 14.6675 133.572 15.2884V31.1605H130.701Z" fill="#1668E2"/>
</svg>
