<svg width="150" height="46" viewBox="0 0 150 46" fill="none" xmlns="http://www.w3.org/2000/svg">
<path d="M29.5409 2.75334C29.723 2.5182 29.9596 2.40063 30.2508 2.40063C30.542 2.40063 30.815 2.55739 31.0699 2.8709L31.6159 3.51752C31.7979 3.67428 31.8889 3.85063 31.8889 4.04657C31.8889 4.20333 31.6705 4.53644 31.2337 5.0459C30.8333 5.55536 29.3407 7.35806 26.7561 10.454C21.0409 17.2337 17.7646 21.2114 16.9273 22.3871C16.4905 22.8573 16.2721 23.1513 16.2721 23.2688C16.2721 23.3472 16.3085 23.3864 16.3813 23.3864C16.4541 23.3864 16.6361 23.3276 16.9273 23.21C20.5312 22.1128 25.3364 19.7026 31.3429 15.9797C37.3494 12.2175 40.3526 9.63102 40.3526 8.22022C40.3526 8.14184 40.2616 8.10265 40.0796 8.10265C39.934 8.10265 39.6609 8.20062 39.2605 8.39656C38.8601 8.59251 38.4779 8.69049 38.1138 8.69049C37.7498 8.69049 37.5678 8.47494 37.5678 8.04386C37.5678 7.73035 37.8226 7.47562 38.3322 7.27968C39.7155 6.73103 42.737 4.71279 47.3966 1.22496C47.6514 0.950638 47.9426 0.813477 48.2702 0.813477C48.5979 0.813477 49.0711 1.18577 49.6899 1.93037C50.3452 2.67496 50.6728 3.39996 50.6728 4.10536C50.6728 8.61211 47.4512 12.7466 41.0079 16.5087C35.4746 19.8006 28.2304 22.9553 19.2753 25.9729C18.6565 26.1688 18.3471 26.3648 18.3471 26.5607C18.3471 27.2269 19.1297 28.6377 20.695 30.7931C22.2968 32.9485 24.1715 35.1235 26.3193 37.3181C28.5035 39.5127 30.2144 40.8451 31.4521 41.3154C32.7262 41.8249 33.3632 42.4715 33.3632 43.2553C33.3632 43.412 33.2176 43.5688 32.9264 43.7255C31.2155 44.6269 29.7958 45.0776 28.6673 45.0776C27.5388 45.0776 26.4103 44.7053 25.2818 43.9607C24.1897 43.2553 23.0976 42.1972 22.0055 40.7864C20.9499 39.4147 20.0034 38.1019 19.1661 36.8479C18.3653 35.5938 17.4188 34.0654 16.3267 32.2627C15.2346 30.4208 14.4701 29.206 14.0333 28.6181C13.6329 27.9911 13.3235 27.6776 13.105 27.6776C12.923 27.6776 12.7774 27.756 12.6682 27.9127C9.97439 31.3614 7.97223 34.1046 6.66173 36.1425C5.35122 38.1411 4.25914 40.2965 3.38547 42.6087C3.34907 42.9614 3.20345 43.1377 2.94863 43.1377C2.62101 43.1377 2.09317 42.7066 1.36511 41.8445C0.600648 40.9823 0.145612 40.081 0 39.1404C0 37.0634 2.25698 32.8506 6.77094 26.5019C8.95511 23.3668 12.0494 19.683 16.0537 15.4506C20.0944 11.179 24.5902 6.94657 29.5409 2.75334Z" fill="#EBA132"/>
<path d="M42.3781 37.7884L42.8149 34.0262C42.8149 33.9087 42.7785 33.8499 42.7057 33.8499C42.6693 33.8499 42.5783 33.9283 42.4327 34.085C41.9594 34.6337 41.3588 35.3195 40.6307 36.1425C39.9027 36.9262 38.6468 38.0039 36.863 39.3755C35.1157 40.708 33.696 41.3742 32.6039 41.3742C32.4219 41.335 32.2035 41.2566 31.9487 41.1391C31.6574 41.0607 31.2934 40.7472 30.8566 40.1985C30.4197 39.6499 30.2013 38.8661 30.2013 37.8472C30.2013 36.8283 30.9294 35.2803 32.3855 33.2033C33.8052 31.0871 35.5161 29.0296 37.5183 27.031C39.5205 24.9932 41.741 23.2296 44.18 21.7405C46.6554 20.2513 48.8032 19.5067 50.6233 19.5067C51.315 19.5459 51.861 20.0749 52.2615 21.0938C52.6255 20.7019 52.9531 20.506 53.2443 20.506C53.5356 20.506 53.8814 20.7411 54.2818 21.2114C54.5002 21.2506 54.7187 21.3878 54.9371 21.6229C55.1555 21.8188 55.2647 22.1128 55.2647 22.5046C55.2647 22.8965 55.0099 23.3276 54.5002 23.7979C53.7358 24.8168 52.8439 25.9729 51.8246 27.2661C50.8054 28.5594 50.0773 29.4999 49.6405 30.0877C49.2036 30.6364 48.7486 31.2634 48.2754 31.9688C47.4745 33.1837 47.0376 34.1634 46.9648 34.908C50.6779 32.9877 56.5206 28.8533 64.4928 22.5046C64.8205 22.779 64.9843 23.1121 64.9843 23.504C64.9843 23.8959 64.8387 24.229 64.5474 24.5033C64.2562 24.7776 63.8922 25.1107 63.4554 25.5026C63.0549 25.8945 62.2359 26.6587 60.9982 27.7952C59.7605 28.9317 58.5592 30.029 57.3943 31.0871C56.2658 32.106 54.9553 33.2621 53.4628 34.5553C52.0066 35.8093 50.6961 36.887 49.5312 37.7884C46.7282 39.9438 44.9809 41.0215 44.2892 41.0215C43.5976 41.0215 43.1061 40.7864 42.8149 40.3161C42.5237 39.8458 42.3781 39.0033 42.3781 37.7884ZM36.8084 35.3195C37.2453 35.3195 38.574 34.3593 40.7946 32.4391C43.0515 30.5188 45.1811 28.5985 47.1833 26.6783L50.2411 23.7979C50.3867 23.6411 50.4595 23.5432 50.4595 23.504C50.4595 23.4256 50.4049 23.3864 50.2957 23.3864C48.9124 23.3864 47.1105 24.2486 44.8899 25.9729C42.6693 27.658 40.74 29.4607 39.1018 31.381C37.5001 33.2621 36.6992 34.5357 36.6992 35.2019C36.6992 35.2803 36.7356 35.3195 36.8084 35.3195Z" fill="#EBA132"/>
<path d="M78.9984 13.0993L81.7832 13.0405C85.3871 13.0405 88.0081 13.5891 89.6462 14.6864C90.4471 14.9607 90.8475 15.3134 90.8475 15.7445C90.8475 16.058 90.4835 16.2736 89.7554 16.3911C89.0638 16.5087 86.6066 16.8222 82.3839 17.3317C78.1975 17.802 75.3217 18.0763 73.7564 18.1547C73.0647 18.1938 71.463 19.4871 68.9512 22.0344C66.4758 24.5817 64.1096 27.3837 61.8526 30.4404C59.5957 33.4972 58.4672 35.633 58.4672 36.8479C58.4672 37.0438 58.5582 37.2201 58.7402 37.3769C58.9222 37.4945 59.1406 37.5533 59.3954 37.5533C59.6867 37.5533 60.1235 37.4357 60.7059 37.2006C67.6225 32.8114 74.3388 28.0107 80.8549 22.7986C81.1826 23.0729 81.3464 23.406 81.3464 23.7979C81.3464 24.1898 81.1644 24.5817 80.8003 24.9736C80.4363 25.3263 79.8903 25.8553 79.1622 26.5607C78.4705 27.2661 77.16 28.5398 75.2307 30.3817C73.3013 32.2235 71.4812 33.8695 69.7703 35.3195C65.1835 39.3168 61.98 41.6289 60.1599 42.256C59.5046 42.4519 58.722 42.5499 57.8119 42.5499C56.9382 42.5499 56.1192 42.06 55.3547 41.0803C54.6267 40.1005 54.2626 38.7681 54.2626 37.083C54.2626 35.3979 55.2637 32.9681 57.2659 29.7938C59.3044 26.6195 62.071 23.3668 65.5657 20.0357C65.8933 19.7614 66.0572 19.5067 66.0572 19.2715C66.0572 19.0364 65.6749 18.9188 64.9105 18.9188L61.4704 19.0364C56.6288 19.0364 54.1352 18.4486 53.9896 17.2729C52.8611 17.0378 52.2969 16.6851 52.2969 16.2148C52.2969 16.058 52.3697 15.9797 52.5153 15.9797C52.6609 15.9405 52.7883 15.9209 52.8975 15.9209C53.0067 15.8817 53.1887 15.8425 53.4436 15.8033C53.6984 15.7641 55.7005 15.4506 59.45 14.8628C63.2359 14.2749 67.5315 13.7851 72.3367 13.3932L76.1044 7.98508C76.3228 7.51481 77.0872 7.27968 78.3977 7.27968C79.7082 7.27968 80.3635 7.57359 80.3635 8.16143C80.3635 8.35738 80.2179 8.71008 79.9267 9.21954L78.5616 11.277C78.3795 11.904 78.2703 12.3743 78.2339 12.6878C78.2339 12.9621 78.4887 13.0993 78.9984 13.0993Z" fill="#EBA132"/>
<path d="M80.7718 37.7884L81.2086 34.0262C81.2086 33.9087 81.1722 33.8499 81.0994 33.8499C81.063 33.8499 80.972 33.9283 80.8263 34.085C80.3531 34.6337 79.7525 35.3195 79.0244 36.1425C78.2964 36.9262 77.0405 38.0039 75.2567 39.3755C73.5094 40.708 72.0897 41.3742 70.9976 41.3742C70.8156 41.335 70.5971 41.2566 70.3423 41.1391C70.0511 41.0607 69.6871 40.7472 69.2502 40.1985C68.8134 39.6499 68.595 38.8661 68.595 37.8472C68.595 36.8283 69.323 35.2803 70.7792 33.2033C72.1989 31.0871 73.9098 29.0296 75.912 27.031C77.9141 24.9932 80.1347 23.2296 82.5737 21.7405C85.0491 20.2513 87.1969 19.5067 89.017 19.5067C89.7087 19.5459 90.2547 20.0749 90.6551 21.0938C91.0192 20.7019 91.3468 20.506 91.638 20.506C91.9292 20.506 92.2751 20.7411 92.6755 21.2114C92.8939 21.2506 93.1123 21.3878 93.3307 21.6229C93.5492 21.8188 93.6584 22.1128 93.6584 22.5046C93.6584 22.8965 93.4036 23.3276 92.8939 23.7979C92.1295 24.8168 91.2376 25.9729 90.2183 27.2661C89.199 28.5594 88.471 29.4999 88.0341 30.0877C87.5973 30.6364 87.1423 31.2634 86.669 31.9688C85.8682 33.1837 85.4313 34.1634 85.3585 34.908C89.0716 32.9877 94.9143 28.8533 102.886 22.5046C103.214 22.779 103.378 23.1121 103.378 23.504C103.378 23.8959 103.232 24.229 102.941 24.5033C102.65 24.7776 102.286 25.1107 101.849 25.5026C101.449 25.8945 100.63 26.6587 99.3918 27.7952C98.1541 28.9317 96.9528 30.029 95.7879 31.0871C94.6594 32.106 93.3489 33.2621 91.8564 34.5553C90.4003 35.8093 89.0898 36.887 87.9249 37.7884C85.1219 39.9438 83.3745 41.0215 82.6829 41.0215C81.9912 41.0215 81.4998 40.7864 81.2086 40.3161C80.9174 39.8458 80.7718 39.0033 80.7718 37.7884ZM75.2021 35.3195C75.6389 35.3195 76.9676 34.3593 79.1882 32.4391C81.4452 30.5188 83.5748 28.5985 85.5769 26.6783L88.6348 23.7979C88.7804 23.6411 88.8532 23.5432 88.8532 23.504C88.8532 23.4256 88.7986 23.3864 88.6894 23.3864C87.3061 23.3864 85.5041 24.2486 83.2835 25.9729C81.063 27.658 79.1336 29.4607 77.4955 31.381C75.8938 33.2621 75.0929 34.5357 75.0929 35.2019C75.0929 35.2803 75.1293 35.3195 75.2021 35.3195Z" fill="#EBA132"/>
<path d="M104.287 20.7999C104.578 20.7999 105.051 20.9567 105.707 21.2702C106.398 21.5837 106.744 21.9364 106.744 22.3283C106.744 22.6026 106.653 22.8769 106.471 23.1513L102.376 29.2648C101.903 29.8918 101.666 30.2445 101.666 30.3229C101.666 30.4012 101.684 30.4404 101.721 30.4404L101.994 30.2641C106.216 27.0898 109.693 24.3073 112.423 21.9168C112.933 21.5249 113.351 21.329 113.679 21.329C114.043 21.329 114.28 21.3682 114.389 21.4465L115.918 21.9168C116.282 22.1128 116.464 22.3675 116.464 22.681C116.464 22.9945 116.391 23.2492 116.245 23.4452C115.554 24.2682 114.753 25.2087 113.843 26.2668C112.969 27.2857 112.314 28.0695 111.877 28.6181C111.44 29.1276 110.949 29.7154 110.403 30.3817C109.857 31.0479 109.456 31.5573 109.201 31.91C108.983 32.2627 108.728 32.6742 108.437 33.1445C108.146 33.5756 107.945 33.9479 107.836 34.2614C107.618 35.1627 107.509 35.9465 107.509 36.6127C107.509 36.9654 107.709 37.1418 108.109 37.1418C108.546 37.1418 109.311 36.8674 110.403 36.3188C111.531 35.7702 112.86 34.9276 114.389 33.7911C115.954 32.6546 118.011 31.0479 120.559 28.9708C123.144 26.8546 125.401 25.0715 127.33 23.6215C127.658 23.8959 127.821 24.229 127.821 24.6209C127.821 25.0127 127.658 25.3654 127.33 25.679C126.165 26.8938 124.691 28.4222 122.907 30.2641C121.123 32.0668 118.393 34.4965 114.716 37.5533C111.076 40.61 108.528 42.1384 107.072 42.1384C104.269 42.1384 102.867 40.5316 102.867 37.3181C102.867 36.1033 103.304 34.8296 104.178 33.4972L106.526 30.029C106.744 29.6762 106.853 29.4803 106.853 29.4411C106.853 29.3627 106.744 29.4215 106.526 29.6175C100.192 35.2999 96.151 38.631 94.4036 39.6107C94.1124 39.8066 93.7484 39.9046 93.3115 39.9046C92.1102 39.9046 91.5096 39.3168 91.5096 38.1411C91.5096 37.7492 91.6006 37.3965 91.7826 37.083C94.4764 34.4181 96.3694 32.2431 97.4615 30.558C98.3351 29.6175 99.2452 28.3046 100.192 26.6195C101.175 24.9344 101.994 23.5432 102.649 22.4459C103.341 21.3486 103.887 20.7999 104.287 20.7999Z" fill="#EBA132"/>
<path d="M127.164 37.7884L127.601 34.0262C127.601 33.9087 127.565 33.8499 127.492 33.8499C127.455 33.8499 127.364 33.9283 127.219 34.085C126.745 34.6337 126.145 35.3195 125.417 36.1425C124.689 36.9262 123.433 38.0039 121.649 39.3755C119.902 40.708 118.482 41.3742 117.39 41.3742C117.208 41.335 116.989 41.2566 116.735 41.1391C116.443 41.0607 116.079 40.7472 115.643 40.1985C115.206 39.6499 114.987 38.8661 114.987 37.8472C114.987 36.8283 115.715 35.2803 117.172 33.2033C118.591 31.0871 120.302 29.0296 122.304 27.031C124.306 24.9932 126.527 23.2296 128.966 21.7405C131.441 20.2513 133.589 19.5067 135.409 19.5067C136.101 19.5459 136.647 20.0749 137.047 21.0938C137.412 20.7019 137.739 20.506 138.03 20.506C138.322 20.506 138.667 20.7411 139.068 21.2114C139.286 21.2506 139.505 21.3878 139.723 21.6229C139.942 21.8188 140.051 22.1128 140.051 22.5046C140.051 22.8965 139.796 23.3276 139.286 23.7979C138.522 24.8168 137.63 25.9729 136.611 27.2661C135.591 28.5594 134.863 29.4999 134.426 30.0877C133.99 30.6364 133.535 31.2634 133.061 31.9688C132.26 33.1837 131.824 34.1634 131.751 34.908C135.464 32.9877 141.307 28.8533 149.279 22.5046C149.606 22.779 149.77 23.1121 149.77 23.504C149.77 23.8959 149.625 24.229 149.333 24.5033C149.042 24.7776 148.678 25.1107 148.241 25.5026C147.841 25.8945 147.022 26.6587 145.784 27.7952C144.546 28.9317 143.345 30.029 142.18 31.0871C141.052 32.106 139.741 33.2621 138.249 34.5553C136.793 35.8093 135.482 36.887 134.317 37.7884C131.514 39.9438 129.767 41.0215 129.075 41.0215C128.384 41.0215 127.892 40.7864 127.601 40.3161C127.31 39.8458 127.164 39.0033 127.164 37.7884ZM121.594 35.3195C122.031 35.3195 123.36 34.3593 125.581 32.4391C127.838 30.5188 129.967 28.5985 131.969 26.6783L135.027 23.7979C135.173 23.6411 135.246 23.5432 135.246 23.504C135.246 23.4256 135.191 23.3864 135.082 23.3864C133.698 23.3864 131.896 24.2486 129.676 25.9729C127.455 27.658 125.526 29.4607 123.888 31.381C122.286 33.2621 121.485 34.5357 121.485 35.2019C121.485 35.2803 121.522 35.3195 121.594 35.3195Z" fill="#EBA132"/>
</svg>
