<svg width="149" height="27" viewBox="0 0 149 27" fill="none" xmlns="http://www.w3.org/2000/svg">
<path d="M6.38072 8.27482V20.823C6.38072 21.859 6.60391 22.5971 7.0503 23.0374C7.49669 23.4518 8.2713 23.659 9.37414 23.659H12.0131V26.6504H8.78333C6.78772 26.6504 5.29101 26.1971 4.2932 25.2906C3.29539 24.3842 2.79649 22.895 2.79649 20.823V8.27482H0V5.36115H2.79649V0H6.38072V5.36115H12.0131V8.27482H6.38072Z" fill="black"/>
<path d="M19.9401 8.81871C20.5702 7.60144 21.463 6.65612 22.6184 5.98274C23.8 5.30935 25.2311 4.97266 26.9116 4.97266V8.62446H25.9663C21.9488 8.62446 19.9401 10.7741 19.9401 15.0734V26.6504H16.3558V5.36115H19.9401V8.81871Z" fill="black"/>
<path d="M29.7099 15.9281C29.7099 13.7525 30.1563 11.8489 31.0491 10.2173C31.9419 8.55971 33.1628 7.2777 34.7121 6.37122C36.2876 5.46475 38.0337 5.01151 39.9506 5.01151C41.8412 5.01151 43.4823 5.41295 44.874 6.21583C46.2656 7.01871 47.3028 8.02878 47.9855 9.24605V5.36115H51.6091V26.6504H47.9855V22.6878C47.2766 23.9309 46.2131 24.9669 44.7952 25.7957C43.4035 26.5986 41.7755 27 39.9112 27C37.9943 27 36.2613 26.5338 34.7121 25.6014C33.1628 24.6691 31.9419 23.3612 31.0491 21.6777C30.1563 19.9942 29.7099 18.0777 29.7099 15.9281ZM47.9855 15.9669C47.9855 14.3612 47.6573 12.9626 47.0009 11.7712C46.3444 10.5799 45.4516 9.67338 44.3225 9.0518C43.2197 8.40432 41.9987 8.08058 40.6595 8.08058C39.3204 8.08058 38.0994 8.39137 36.9965 9.01295C35.8937 9.63453 35.014 10.541 34.3576 11.7324C33.7011 12.9237 33.3729 14.3223 33.3729 15.9281C33.3729 17.5597 33.7011 18.9842 34.3576 20.2014C35.014 21.3928 35.8937 22.3122 36.9965 22.9597C38.0994 23.5813 39.3204 23.8921 40.6595 23.8921C41.9987 23.8921 43.2197 23.5813 44.3225 22.9597C45.4516 22.3122 46.3444 21.3928 47.0009 20.2014C47.6573 18.9842 47.9855 17.5727 47.9855 15.9669Z" fill="black"/>
<path d="M65.7011 23.3871L72.397 5.36115H76.2175L67.7493 26.6504H63.5742L55.106 5.36115H58.9659L65.7011 23.3871Z" fill="black"/>
<path d="M78.4053 15.9281C78.4053 13.7525 78.8517 11.8489 79.7445 10.2173C80.6373 8.55971 81.8583 7.2777 83.4075 6.37122C84.983 5.46475 86.7292 5.01151 88.646 5.01151C90.5366 5.01151 92.1777 5.41295 93.5694 6.21583C94.9611 7.01871 95.9983 8.02878 96.681 9.24605V5.36115H100.305V26.6504H96.681V22.6878C95.972 23.9309 94.9086 24.9669 93.4906 25.7957C92.0989 26.5986 90.4709 27 88.6066 27C86.6898 27 84.9567 26.5338 83.4075 25.6014C81.8583 24.6691 80.6373 23.3612 79.7445 21.6777C78.8517 19.9942 78.4053 18.0777 78.4053 15.9281ZM96.681 15.9669C96.681 14.3612 96.3528 12.9626 95.6963 11.7712C95.0398 10.5799 94.1471 9.67338 93.018 9.0518C91.9151 8.40432 90.6941 8.08058 89.355 8.08058C88.0158 8.08058 86.7948 8.39137 85.692 9.01295C84.5891 9.63453 83.7095 10.541 83.053 11.7324C82.3966 12.9237 82.0683 14.3223 82.0683 15.9281C82.0683 17.5597 82.3966 18.9842 83.053 20.2014C83.7095 21.3928 84.5891 22.3122 85.692 22.9597C86.7948 23.5813 88.0158 23.8921 89.355 23.8921C90.6941 23.8921 91.9151 23.5813 93.018 22.9597C94.1471 22.3122 95.0398 21.3928 95.6963 20.2014C96.3528 18.9842 96.681 17.5727 96.681 15.9669Z" fill="black"/>
<path d="M114.397 23.3871L121.092 5.36115H124.913L116.445 26.6504H112.27L103.801 5.36115H107.661L114.397 23.3871Z" fill="black"/>
<path d="M127.101 15.9281C127.101 13.7525 127.547 11.8489 128.44 10.2173C129.333 8.55971 130.554 7.2777 132.103 6.37122C133.678 5.46475 135.425 5.01151 137.341 5.01151C139.232 5.01151 140.873 5.41295 142.265 6.21583C143.657 7.01871 144.694 8.02878 145.376 9.24605V5.36115H149V26.6504H145.376V22.6878C144.667 23.9309 143.604 24.9669 142.186 25.7957C140.794 26.5986 139.166 27 137.302 27C135.385 27 133.652 26.5338 132.103 25.6014C130.554 24.6691 129.333 23.3612 128.44 21.6777C127.547 19.9942 127.101 18.0777 127.101 15.9281ZM145.376 15.9669C145.376 14.3612 145.048 12.9626 144.392 11.7712C143.735 10.5799 142.843 9.67338 141.713 9.0518C140.611 8.40432 139.39 8.08058 138.05 8.08058C136.711 8.08058 135.49 8.39137 134.387 9.01295C133.285 9.63453 132.405 10.541 131.748 11.7324C131.092 12.9237 130.764 14.3223 130.764 15.9281C130.764 17.5597 131.092 18.9842 131.748 20.2014C132.405 21.3928 133.285 22.3122 134.387 22.9597C135.49 23.5813 136.711 23.8921 138.05 23.8921C139.39 23.8921 140.611 23.5813 141.713 22.9597C142.843 22.3122 143.735 21.3928 144.392 20.2014C145.048 18.9842 145.376 17.5727 145.376 15.9669Z" fill="black"/>
</svg>
