<svg viewBox="0 0 95.5655 96.9954" xmlns="http://www.w3.org/2000/svg" xmlns:xlink="http://www.w3.org/1999/xlink" width="95.565491" height="96.995361" fill="none" customFrame="#000000">
	<defs>
		<clipPath id="clipPath_0">
			<rect width="95.565475" height="96.995361" x="0.000000" y="0.000244" rx="10.000000" fill="rgb(255,255,255)" />
		</clipPath>
	</defs>
	<g id="Group 31">
		<g id="Frame 1" clip-path="url(#clipPath_0)" customFrame="url(#clipPath_0)">
			<rect id="Frame 1" width="95.565475" height="96.995361" x="0.000000" y="0.000244" rx="10.000000" fill="rgb(0,0,0)" />
		</g>
		<g id="Icon">
			<path id="Vector" d="M73.9691 35.9729L60.8759 35.9729C59.1402 35.9747 57.4761 36.6753 56.2487 37.921C55.0214 39.1667 54.3311 40.8557 54.3293 42.6174L54.3293 55.9063C54.3305 57.0807 54.7907 58.2067 55.6089 59.0372C56.4272 59.8677 57.5366 60.3347 58.6937 60.3359L58.6937 75.8396C58.6949 77.0141 59.1551 78.1401 59.9733 78.9706C60.7916 79.801 61.901 80.2681 63.0581 80.2693L71.7869 80.2693C72.9441 80.2681 74.0535 79.801 74.8718 78.9706C75.69 78.1401 76.1502 77.0141 76.1514 75.8396L76.1514 60.3359C77.3085 60.3347 78.4179 59.8677 79.2362 59.0372C80.0544 58.2067 80.5146 57.0807 80.5157 55.9063L80.5157 42.6174C80.514 40.8557 79.8237 39.1667 78.5964 37.921C77.369 36.6753 75.7049 35.9747 73.9691 35.9729ZM76.1514 55.9063L71.7869 55.9063L71.7869 75.8396L63.0581 75.8396L63.0581 55.9063L58.6937 55.9063L58.6937 42.6174C58.6937 42.03 58.9237 41.4666 59.3329 41.0512C59.7421 40.6359 60.2972 40.4025 60.8759 40.4025L73.9691 40.4025C74.5479 40.4025 75.103 40.6359 75.5122 41.0512C75.9214 41.4666 76.1514 42.03 76.1514 42.6174L76.1514 55.9063Z" fill="rgb(255,255,255)" fill-rule="nonzero" />
			<path id="Vector" d="M58.6938 24.8988C58.6938 23.1466 59.2058 21.4337 60.1649 19.9767C61.1241 18.5198 62.4873 17.3843 64.0823 16.7137C65.6773 16.0431 67.4324 15.8677 69.1256 16.2095C70.8188 16.5514 72.3741 17.3952 73.5949 18.6342C74.8156 19.8732 75.647 21.4518 75.9838 23.1704C76.3206 24.889 76.1477 26.6703 75.487 28.2892C74.8264 29.908 73.7076 31.2917 72.2721 32.2652C70.8367 33.2387 69.1491 33.7583 67.4227 33.7583C65.1084 33.756 62.8895 32.8218 61.253 31.1608C59.6165 29.4999 58.6962 27.2478 58.6938 24.8988ZM63.0583 24.8988C63.0583 25.7749 63.3142 26.6314 63.7938 27.3598C64.2734 28.0883 64.955 28.6561 65.7525 28.9914C66.55 29.3266 67.4275 29.4144 68.2741 29.2434C69.1207 29.0725 69.8984 28.6506 70.5088 28.0311C71.1191 27.4116 71.5348 26.6223 71.7032 25.763C71.8716 24.9037 71.7852 24.013 71.4549 23.2036C71.1245 22.3942 70.5651 21.7024 69.8474 21.2156C69.1297 20.7289 68.2859 20.4691 67.4227 20.4691C66.2655 20.4702 65.1561 20.9373 64.3378 21.7678C63.5196 22.5983 63.0594 23.7243 63.0583 24.8988Z" fill="rgb(255,255,255)" fill-rule="nonzero" />
			<path id="Vector" d="M45.6005 49.2618L45.6005 42.6173C45.5988 40.8557 44.9085 39.1666 43.6811 37.921C42.4538 36.6753 40.7896 35.9747 39.0539 35.9729L25.9607 35.9729C24.225 35.9747 22.5608 36.6753 21.3335 37.921C20.1061 39.1666 19.4158 40.8557 19.4141 42.6173L19.4141 49.2618L15.0497 49.2618L15.0497 53.6914L49.9649 53.6914L49.9649 49.2618L45.6005 49.2618ZM23.7785 42.6173C23.7785 42.0299 24.0084 41.4666 24.4176 41.0512C24.8269 40.6359 25.3819 40.4025 25.9607 40.4025L39.0539 40.4025C39.6327 40.4025 40.1877 40.6359 40.597 41.0512C41.0062 41.4666 41.2361 42.0299 41.2361 42.6173L41.2361 49.2618L23.7785 49.2618L23.7785 42.6173Z" fill="rgb(255,255,255)" fill-rule="nonzero" />
			<path id="Vector" d="M23.7786 24.8988C23.7786 23.1466 24.2905 21.4337 25.2496 19.9767C26.2088 18.5198 27.572 17.3843 29.167 16.7137C30.762 16.0431 32.5171 15.8677 34.2103 16.2095C35.9035 16.5514 37.4588 17.3952 38.6796 18.6342C39.9003 19.8732 40.7317 21.4518 41.0685 23.1704C41.4053 24.889 41.2324 26.6703 40.5718 28.2892C39.9111 29.908 38.7923 31.2917 37.3569 32.2652C35.9214 33.2387 34.2338 33.7583 32.5074 33.7583C30.1931 33.756 27.9742 32.8218 26.3377 31.1608C24.7013 29.4999 23.7809 27.2478 23.7786 24.8988ZM28.143 24.8988C28.143 25.7749 28.3989 26.6314 28.8785 27.3598C29.3581 28.0883 30.0397 28.6561 30.8372 28.9914C31.6347 29.3266 32.5122 29.4144 33.3588 29.2434C34.2055 29.0725 34.9831 28.6506 35.5935 28.0311C36.2039 27.4116 36.6195 26.6223 36.7879 25.763C36.9563 24.9037 36.8699 24.013 36.5396 23.2036C36.2092 22.3942 35.6498 21.7024 34.9321 21.2156C34.2144 20.7289 33.3706 20.4691 32.5074 20.4691C31.3502 20.4702 30.2408 20.9373 29.4226 21.7678C28.6043 22.5983 28.1441 23.7243 28.143 24.8988Z" fill="rgb(255,255,255)" fill-rule="nonzero" />
		</g>
	</g>
</svg>
