<svg viewBox="0 0 95.5654 96.9954" xmlns="http://www.w3.org/2000/svg" xmlns:xlink="http://www.w3.org/1999/xlink" width="95.565430" height="96.995361" fill="none" customFrame="#000000">
	<defs>
		<clipPath id="clipPath_1">
			<rect width="95.565430" height="96.995361" x="0.000000" y="0.000000" rx="10.000000" fill="rgb(255,255,255)" />
		</clipPath>
	</defs>
	<g id="Group 31">
		<g id="Frame 1" clip-path="url(#clipPath_1)" customFrame="url(#clipPath_1)">
			<rect id="Frame 1" width="95.565430" height="96.995361" x="0.000000" y="0.000000" rx="10.000000" fill="rgb(0,0,0)" />
		</g>
		<g id="Icon">
			<path id="Vector" d="M47.5 57.0887C42.21 57.0887 41.75 54.543 41.75 54.1286L36 54.1286C36 56.8519 37.8975 61.677 44.625 62.7723L44.625 65.9692L50.375 65.9692L50.375 62.7723C56.125 61.7658 59 57.9472 59 54.1286C59 50.8132 57.505 45.2481 47.5 45.2481C41.75 45.2481 41.75 43.3832 41.75 42.2879C41.75 41.1927 43.7625 39.3278 47.5 39.3278C51.2375 39.3278 51.4962 41.2223 51.525 42.2879L57.275 42.2879C57.2361 40.2713 56.5317 38.3284 55.2776 36.7789C54.0235 35.2294 52.2945 34.1656 50.375 33.7626L50.375 30.4473L44.625 30.4473L44.625 33.6738C38.875 34.6507 36 38.4693 36 42.2879C36 45.6033 37.495 51.1684 47.5 51.1684C53.25 51.1684 53.25 53.1813 53.25 54.1286C53.25 55.0758 51.4675 57.0887 47.5 57.0887Z" fill="rgb(248,248,248)" fill-rule="nonzero" />
			<path id="Vector" d="M27.7 19.2832L19 19.2832L19 25.1697L24.8 25.1697L24.8 75.2052C24.8 75.9858 25.1055 76.7344 25.6494 77.2864C26.1932 77.8383 26.9309 78.1484 27.7 78.1484L68.3 78.1484C69.0691 78.1484 69.8068 77.8383 70.3506 77.2864C70.8945 76.7344 71.2 75.9858 71.2 75.2052L71.2 25.1697L77 25.1697L77 19.2832L27.7 19.2832ZM65.4 72.2619L30.6 72.2619L30.6 25.1697L65.4 25.1697L65.4 72.2619Z" fill="rgb(248,248,248)" fill-rule="nonzero" />
		</g>
	</g>
</svg>
