<svg viewBox="0 0 95.5654 96.9954" xmlns="http://www.w3.org/2000/svg" xmlns:xlink="http://www.w3.org/1999/xlink" width="95.565430" height="96.995361" fill="none" customFrame="#000000">
	<defs>
		<clipPath id="clipPath_2">
			<rect width="95.565430" height="96.995361" x="0.000000" y="-0.000122" rx="10.000000" fill="rgb(255,255,255)" />
		</clipPath>
	</defs>
	<g id="Group 31">
		<g id="Frame 1" clip-path="url(#clipPath_2)" customFrame="url(#clipPath_2)">
			<rect id="Frame 1" width="95.565430" height="96.995361" x="0.000000" y="-0.000122" rx="10.000000" fill="rgb(0,0,0)" />
			<path id="Vector" d="M66.6547 18.129L29.0156 18.129L29.0156 22.5761L15.9286 22.5761L15.9286 43.4357C15.9286 51.4974 24.7634 58.1314 33.4331 58.8215C36.2792 61.9271 41.2853 64.183 45.7408 65.1449L45.7408 70.597C41.4801 71.9299 33.8693 75.0614 33.4331 78.4733L62.6735 78.4733C62.2331 75.0614 53.8472 71.9256 49.578 70.597L49.578 65.1449C54.0505 64.183 59.2811 61.9271 62.1314 58.8215C70.7968 58.1314 79.242 51.4974 79.242 43.4357L79.242 22.5761L66.6547 22.5761L66.6547 18.129ZM19.9479 26.5272L28.7107 26.5272L28.7107 44.4968C28.7107 48.0424 29.6086 51.4154 31.1884 54.452C24.6321 52.3255 19.9479 46.8475 19.9479 40.4379L19.9479 26.5272ZM54.2707 48.4435L47.7314 44.7728L41.1836 48.4435L42.4331 40.6794L37.1389 35.1842L44.4533 34.0497L47.7314 26.993L51.0011 34.0497L58.3154 35.1842L53.0213 40.6794L54.2707 48.4435ZM63.9907 55.0257C65.5789 51.8511 66.4895 48.34 66.4895 44.6262L66.4895 26.6437L75.2735 26.6437L75.2735 40.3861C75.2735 47.0848 70.5681 52.8043 63.9907 55.0257Z" fill="rgb(248,248,248)" fill-rule="evenodd" />
		</g>
	</g>
</svg>
